<mxfile host="app.diagrams.net" modified="2022-11-20T08:56:25.551Z" agent="5.0 (Windows NT 10.0; Win64; x64) AppleWebKit/537.36 (KHTML, like Gecko) Chrome/107.0.0.0 Safari/537.36 Edg/107.0.1418.52" etag="dvfr9sV2iNAvvdFWFXbw" version="20.5.3" type="github">
  <diagram id="C5RBs43oDa-KdzZeNtuy" name="Page-1">
    <mxGraphModel dx="1422" dy="754" grid="1" gridSize="10" guides="1" tooltips="1" connect="1" arrows="1" fold="1" page="1" pageScale="1" pageWidth="827" pageHeight="1169" math="0" shadow="0">
      <root>
        <mxCell id="WIyWlLk6GJQsqaUBKTNV-0" />
        <mxCell id="WIyWlLk6GJQsqaUBKTNV-1" parent="WIyWlLk6GJQsqaUBKTNV-0" />
        <mxCell id="PmO3bwTNtTrdmaL0kwY7-2" value="&lt;font style=&quot;font-size: 24px;&quot;&gt;小A&lt;/font&gt;" style="rounded=0;whiteSpace=wrap;html=1;" vertex="1" parent="WIyWlLk6GJQsqaUBKTNV-1">
          <mxGeometry x="183" y="460" width="120" height="260" as="geometry" />
        </mxCell>
        <mxCell id="PmO3bwTNtTrdmaL0kwY7-16" style="edgeStyle=orthogonalEdgeStyle;rounded=0;orthogonalLoop=1;jettySize=auto;html=1;exitX=0.5;exitY=1;exitDx=0;exitDy=0;entryX=0.5;entryY=0;entryDx=0;entryDy=0;" edge="1" parent="WIyWlLk6GJQsqaUBKTNV-1" source="PmO3bwTNtTrdmaL0kwY7-4" target="PmO3bwTNtTrdmaL0kwY7-14">
          <mxGeometry relative="1" as="geometry" />
        </mxCell>
        <mxCell id="PmO3bwTNtTrdmaL0kwY7-4" value="&lt;font style=&quot;font-size: 24px;&quot;&gt;小B&lt;/font&gt;" style="rounded=0;whiteSpace=wrap;html=1;fontSize=24;" vertex="1" parent="WIyWlLk6GJQsqaUBKTNV-1">
          <mxGeometry x="524" y="460" width="120" height="55" as="geometry" />
        </mxCell>
        <mxCell id="PmO3bwTNtTrdmaL0kwY7-5" value="&lt;font style=&quot;font-size: 14px;&quot;&gt;①、帮我拿个快递&lt;/font&gt;" style="text;html=1;align=center;verticalAlign=middle;resizable=0;points=[];autosize=1;strokeColor=none;fillColor=none;fontSize=24;rounded=0;" vertex="1" parent="WIyWlLk6GJQsqaUBKTNV-1">
          <mxGeometry x="347.5" y="450" width="140" height="40" as="geometry" />
        </mxCell>
        <mxCell id="PmO3bwTNtTrdmaL0kwY7-18" style="edgeStyle=orthogonalEdgeStyle;rounded=0;orthogonalLoop=1;jettySize=auto;html=1;entryX=1.008;entryY=0.894;entryDx=0;entryDy=0;entryPerimeter=0;" edge="1" parent="WIyWlLk6GJQsqaUBKTNV-1" source="PmO3bwTNtTrdmaL0kwY7-14" target="PmO3bwTNtTrdmaL0kwY7-2">
          <mxGeometry relative="1" as="geometry" />
        </mxCell>
        <mxCell id="PmO3bwTNtTrdmaL0kwY7-14" value="&lt;font style=&quot;font-size: 24px;&quot;&gt;小C&lt;/font&gt;" style="rounded=0;whiteSpace=wrap;html=1;fontSize=24;" vertex="1" parent="WIyWlLk6GJQsqaUBKTNV-1">
          <mxGeometry x="524" y="665" width="120" height="55" as="geometry" />
        </mxCell>
        <mxCell id="PmO3bwTNtTrdmaL0kwY7-15" value="" style="endArrow=classic;html=1;rounded=0;exitX=1.008;exitY=0.154;exitDx=0;exitDy=0;exitPerimeter=0;entryX=0;entryY=0.75;entryDx=0;entryDy=0;" edge="1" parent="WIyWlLk6GJQsqaUBKTNV-1">
          <mxGeometry width="50" height="50" relative="1" as="geometry">
            <mxPoint x="303.96000000000004" y="488.03999999999996" as="sourcePoint" />
            <mxPoint x="524" y="489.25" as="targetPoint" />
            <Array as="points">
              <mxPoint x="514" y="488" />
            </Array>
          </mxGeometry>
        </mxCell>
        <mxCell id="PmO3bwTNtTrdmaL0kwY7-17" value="&lt;font style=&quot;font-size: 14px;&quot;&gt;②、帮小A拿个快递&lt;/font&gt;" style="text;html=1;align=center;verticalAlign=middle;resizable=0;points=[];autosize=1;strokeColor=none;fillColor=none;fontSize=24;rounded=0;rotation=-90;" vertex="1" parent="WIyWlLk6GJQsqaUBKTNV-1">
          <mxGeometry x="494" y="570" width="140" height="40" as="geometry" />
        </mxCell>
        <mxCell id="PmO3bwTNtTrdmaL0kwY7-19" value="&lt;font style=&quot;font-size: 14px;&quot;&gt;③、OK，拿到快递了&lt;/font&gt;" style="text;html=1;align=center;verticalAlign=middle;resizable=0;points=[];autosize=1;strokeColor=none;fillColor=none;fontSize=24;rounded=0;" vertex="1" parent="WIyWlLk6GJQsqaUBKTNV-1">
          <mxGeometry x="347.5" y="656" width="160" height="40" as="geometry" />
        </mxCell>
      </root>
    </mxGraphModel>
  </diagram>
</mxfile>
